<svg width="24" height="24" viewBox="0 0 24 24" fill="none" xmlns="http://www.w3.org/2000/svg">
<path d="M12 0C5.38329 0 0 5.38329 0 12C0 18.6167 5.38329 24 12 24C14.1101 24 16.185 23.4448 18.0015 22.3938L16.5 19.7966C15.1392 20.584 13.5828 21 12 21C7.03713 21 2.99999 16.9629 2.99999 12C2.99999 7.03713 7.03713 2.99999 12 2.99999C16.9629 2.99999 21 7.03713 21 12V13.3066C21 14.2881 20.3694 15 19.5 15C18.6731 15 18 14.3269 18 13.5V7.49999H15.9264C14.8712 6.57813 13.5079 5.99997 12 5.99997C8.69164 5.99997 5.99997 8.69164 5.99997 12C5.99997 15.3084 8.69164 18 12 18C13.5754 18 14.9998 17.377 16.0716 16.3803C16.8977 17.362 18.1195 18 19.5 18C22.0232 18 24 15.9383 24 13.3066V12C24 5.38329 18.6167 0 12 0V0ZM12 15C10.3454 15 9.00001 13.6545 9.00001 12C9.00001 10.3454 10.3455 9.00001 12 9.00001C13.6546 9.00001 15 10.3455 15 12C15 13.6546 13.6546 15 12 15V15Z" fill="#68ABEC"/>
</svg>
