<?xml version="1.0" encoding="UTF-8" standalone="no"?>
<!DOCTYPE svg PUBLIC "-//W3C//DTD SVG 1.1//EN" "http://www.w3.org/Graphics/SVG/1.1/DTD/svg11.dtd">
<svg width="100%" height="100%" viewBox="0 0 1685 692" version="1.1" xmlns="http://www.w3.org/2000/svg" xmlns:xlink="http://www.w3.org/1999/xlink" xml:space="preserve" xmlns:serif="http://www.serif.com/" style="fill-rule:evenodd;clip-rule:evenodd;stroke-linejoin:round;stroke-miterlimit:2;">
    <g transform="matrix(1,0,0,1,-21394.8,-11238)">
        <g transform="matrix(2.57263,0,0,2.03778,-4881.68,3572.23)">
            <g transform="matrix(2.8311,0,0,3.57417,12703.5,336.795)">
                <g transform="matrix(3.47349,0,0,3.47349,-2617.68,-1810.03)">
                    <g transform="matrix(12,0,0,12,531.983,808.426)">
                        <path d="M0.017,-0.28L0.156,-0.28L0.156,-0.12C0.156,-0.104 0.166,-0.096 0.185,-0.096C0.204,-0.096 0.213,-0.104 0.213,-0.12L0.213,-0.203C0.213,-0.228 0.196,-0.258 0.163,-0.292C0.097,-0.355 0.056,-0.398 0.041,-0.42C0.025,-0.442 0.017,-0.466 0.017,-0.492L0.017,-0.57C0.017,-0.661 0.076,-0.707 0.195,-0.707C0.301,-0.707 0.354,-0.665 0.354,-0.583L0.354,-0.461L0.214,-0.461L0.214,-0.59C0.214,-0.604 0.207,-0.611 0.191,-0.611C0.173,-0.611 0.164,-0.598 0.164,-0.571L0.167,-0.525C0.167,-0.499 0.184,-0.469 0.218,-0.435C0.283,-0.373 0.324,-0.33 0.341,-0.306C0.358,-0.281 0.367,-0.254 0.367,-0.223L0.367,-0.133C0.367,-0.04 0.308,0.006 0.189,0.006C0.074,0.006 0.017,-0.036 0.017,-0.121L0.017,-0.28Z" style="fill:white;fill-rule:nonzero;"/>
                    </g>
                    <g transform="matrix(12,0,0,12,536.576,808.426)">
                        <path d="M0.404,0L0.241,0L0.156,-0.205L0.156,0L0.017,0L0.017,-0.7L0.156,-0.7L0.156,-0.386L0.227,-0.567L0.371,-0.567L0.27,-0.319L0.404,0Z" style="fill:white;fill-rule:nonzero;"/>
                    </g>
                    <g transform="matrix(12,0,0,12,541.498,808.426)">
                        <path d="M0.152,-0.598L0.013,-0.598L0.013,-0.7L0.152,-0.7L0.152,-0.598ZM0.152,0L0.013,0L0.013,-0.567L0.152,-0.567L0.152,0Z" style="fill:white;fill-rule:nonzero;"/>
                    </g>
                    <g transform="matrix(12,0,0,12,543.49,808.426)">
                        <path d="M0.341,0L0.202,0L0.202,-0.455C0.202,-0.472 0.194,-0.481 0.178,-0.481C0.162,-0.481 0.154,-0.473 0.154,-0.456L0.154,0L0.015,0L0.015,-0.567L0.154,-0.567L0.154,-0.548C0.172,-0.563 0.201,-0.571 0.24,-0.571C0.265,-0.571 0.288,-0.564 0.309,-0.55C0.331,-0.537 0.341,-0.517 0.341,-0.49L0.341,0Z" style="fill:white;fill-rule:nonzero;"/>
                    </g>
                    <g transform="matrix(12,0,0,12,549.901,808.426)">
                        <path d="M0.354,-0.456L0.214,-0.456L0.214,-0.594C0.214,-0.606 0.207,-0.611 0.193,-0.611C0.178,-0.611 0.17,-0.606 0.17,-0.594L0.17,-0.108C0.17,-0.097 0.178,-0.091 0.193,-0.091C0.207,-0.091 0.214,-0.097 0.214,-0.108L0.214,-0.281L0.354,-0.281L0.354,-0.104C0.354,-0.07 0.337,-0.044 0.305,-0.024C0.272,-0.004 0.235,0.006 0.194,0.006C0.076,0.006 0.017,-0.036 0.017,-0.12L0.017,-0.57C0.017,-0.661 0.076,-0.707 0.194,-0.707C0.3,-0.707 0.354,-0.665 0.354,-0.583L0.354,-0.456Z" style="fill:white;fill-rule:nonzero;"/>
                    </g>
                    <g transform="matrix(12,0,0,12,554.342,808.426)">
                        <path d="M0.344,0L0.221,0L0.221,-0.022C0.21,-0.002 0.181,0.008 0.131,0.008C0.056,0.008 0.018,-0.022 0.018,-0.081L0.018,-0.195C0.018,-0.22 0.027,-0.242 0.045,-0.261C0.064,-0.28 0.101,-0.304 0.156,-0.332C0.188,-0.348 0.205,-0.361 0.205,-0.371L0.205,-0.455C0.205,-0.474 0.197,-0.483 0.181,-0.483C0.162,-0.483 0.153,-0.46 0.153,-0.415C0.153,-0.407 0.154,-0.395 0.155,-0.379C0.156,-0.363 0.157,-0.351 0.157,-0.343L0.022,-0.343L0.022,-0.456C0.022,-0.533 0.078,-0.571 0.188,-0.571C0.292,-0.571 0.344,-0.531 0.344,-0.451L0.344,0ZM0.205,-0.106L0.205,-0.252C0.173,-0.244 0.157,-0.23 0.157,-0.209L0.157,-0.106C0.157,-0.089 0.165,-0.08 0.182,-0.08C0.197,-0.08 0.205,-0.089 0.205,-0.106Z" style="fill:white;fill-rule:nonzero;"/>
                    </g>
                    <g transform="matrix(12,0,0,12,558.672,808.426)">
                        <path d="M0.345,-0.332L0.206,-0.332L0.206,-0.455C0.206,-0.472 0.198,-0.481 0.182,-0.481C0.166,-0.481 0.158,-0.473 0.158,-0.456L0.158,0L0.019,0L0.019,-0.567L0.158,-0.567L0.158,-0.548C0.177,-0.563 0.205,-0.571 0.244,-0.571C0.272,-0.571 0.296,-0.563 0.315,-0.549C0.335,-0.534 0.345,-0.514 0.345,-0.49L0.345,-0.332Z" style="fill:white;fill-rule:nonzero;"/>
                    </g>
                    <g transform="matrix(12,0,0,12,562.944,808.426)">
                        <path d="M0.341,-0.24L0.155,-0.24L0.155,-0.108C0.155,-0.089 0.163,-0.079 0.179,-0.079C0.194,-0.079 0.202,-0.089 0.202,-0.108L0.202,-0.222L0.341,-0.222L0.341,-0.107C0.341,-0.03 0.287,0.008 0.178,0.008C0.07,0.008 0.016,-0.032 0.016,-0.112L0.016,-0.451C0.016,-0.531 0.07,-0.571 0.178,-0.571C0.287,-0.571 0.341,-0.533 0.341,-0.456L0.341,-0.24ZM0.202,-0.325L0.202,-0.455C0.202,-0.474 0.194,-0.483 0.179,-0.483C0.163,-0.483 0.155,-0.474 0.155,-0.455L0.155,-0.325L0.202,-0.325Z" style="fill:white;fill-rule:nonzero;"/>
                    </g>
                    <g transform="matrix(12,0,0,12,531.983,820.841)">
                        <path d="M0.017,-0.28L0.156,-0.28L0.156,-0.12C0.156,-0.104 0.166,-0.096 0.185,-0.096C0.204,-0.096 0.213,-0.104 0.213,-0.12L0.213,-0.203C0.213,-0.228 0.196,-0.258 0.163,-0.292C0.097,-0.355 0.056,-0.398 0.041,-0.42C0.025,-0.442 0.017,-0.466 0.017,-0.492L0.017,-0.57C0.017,-0.661 0.076,-0.707 0.195,-0.707C0.301,-0.707 0.354,-0.665 0.354,-0.583L0.354,-0.461L0.214,-0.461L0.214,-0.59C0.214,-0.604 0.207,-0.611 0.191,-0.611C0.173,-0.611 0.164,-0.598 0.164,-0.571L0.167,-0.525C0.167,-0.499 0.184,-0.469 0.218,-0.435C0.283,-0.373 0.324,-0.33 0.341,-0.306C0.358,-0.281 0.367,-0.254 0.367,-0.223L0.367,-0.133C0.367,-0.04 0.308,0.006 0.189,0.006C0.074,0.006 0.017,-0.036 0.017,-0.121L0.017,-0.28Z" style="fill:white;fill-rule:nonzero;"/>
                    </g>
                    <g transform="matrix(12,0,0,12,536.576,820.841)">
                        <path d="M0.342,0L0.203,0L0.203,-0.457C0.203,-0.474 0.195,-0.483 0.179,-0.483C0.163,-0.483 0.155,-0.475 0.155,-0.458L0.155,0L0.016,0L0.016,-0.7L0.155,-0.7L0.155,-0.55C0.172,-0.564 0.201,-0.571 0.241,-0.571C0.269,-0.571 0.292,-0.564 0.312,-0.549C0.332,-0.535 0.342,-0.516 0.342,-0.492L0.342,0Z" style="fill:white;fill-rule:nonzero;"/>
                    </g>
                    <g transform="matrix(12,0,0,12,540.871,820.841)">
                        <path d="M0.013,-0.112L0.013,-0.451C0.013,-0.531 0.068,-0.571 0.178,-0.571C0.221,-0.571 0.258,-0.562 0.291,-0.543C0.323,-0.524 0.339,-0.495 0.339,-0.456L0.339,-0.107C0.339,-0.03 0.286,0.008 0.178,0.008C0.068,0.008 0.013,-0.032 0.013,-0.112ZM0.2,-0.108L0.2,-0.455C0.2,-0.474 0.192,-0.483 0.176,-0.483C0.16,-0.483 0.152,-0.474 0.152,-0.455L0.152,-0.108C0.152,-0.089 0.16,-0.079 0.176,-0.079C0.192,-0.079 0.2,-0.089 0.2,-0.108Z" style="fill:white;fill-rule:nonzero;"/>
                    </g>
                    <g transform="matrix(12,0,0,12,545.096,820.841)">
                        <path d="M0.154,-0.013L0.154,0.12L0.015,0.12L0.015,-0.567L0.12,-0.567L0.132,-0.544C0.155,-0.562 0.182,-0.571 0.213,-0.571C0.245,-0.571 0.274,-0.563 0.301,-0.547C0.328,-0.531 0.341,-0.508 0.341,-0.478L0.341,-0.071C0.341,-0.047 0.332,-0.028 0.312,-0.014C0.292,0.001 0.269,0.008 0.24,0.008C0.202,0.008 0.173,0.001 0.154,-0.013ZM0.202,-0.106L0.202,-0.457C0.202,-0.474 0.194,-0.483 0.178,-0.483C0.162,-0.483 0.154,-0.474 0.154,-0.457L0.154,-0.105C0.154,-0.088 0.162,-0.08 0.178,-0.08C0.194,-0.08 0.202,-0.089 0.202,-0.106Z" style="fill:white;fill-rule:nonzero;"/>
                    </g>
                </g>
                <g transform="matrix(1,0,0,1,-2982.16,-1709.91)">
                    <path d="M2134.13,2731.81C2134.13,2731.81 2117.34,2731.81 2117.34,2731.81C2109.3,2731.81 2102.79,2725.3 2102.79,2717.26C2102.79,2716.21 2102.79,2715.14 2102.79,2714.08C2102.79,2706.05 2109.3,2699.53 2117.34,2699.53L2134.13,2699.53L2134.13,2682.74C2134.13,2674.71 2140.64,2668.19 2148.68,2668.19C2149.74,2668.19 2150.8,2668.19 2151.86,2668.19C2159.9,2668.19 2166.41,2674.71 2166.41,2682.74L2166.41,2731.81C2166.41,2731.81 2134.13,2731.81 2134.13,2731.81Z" style="fill:white;"/>
                </g>
                <g transform="matrix(1,0,0,1,-2982.16,-1709.91)">
                    <path d="M2166.41,2735.3L2166.41,2747.02C2166.41,2755.93 2159.18,2763.16 2150.27,2763.16L2150.27,2763.16C2141.36,2763.16 2134.13,2755.93 2134.13,2747.02L2134.13,2735.3L2166.41,2735.3ZM2181.61,2699.53C2190.53,2699.53 2197.75,2706.76 2197.75,2715.67L2197.75,2715.67C2197.75,2724.59 2190.53,2731.81 2181.61,2731.81L2169.67,2731.81L2169.67,2699.53L2181.61,2699.53Z" style="fill:rgb(85,235,158);"/>
                </g>
                <g transform="matrix(1,0,0,1,-2981.07,-1709.91)">
                    <circle cx="2142.39" cy="2679.22" r="1.53" style="fill:white;"/>
                </g>
                <g transform="matrix(1,0,0,1,-3011.16,-1679.82)">
                    <circle cx="2142.39" cy="2679.22" r="1.53" style="fill:white;"/>
                </g>
                <g transform="matrix(1,0,0,1,-2981.07,-1703.48)">
                    <circle cx="2142.39" cy="2679.22" r="1.53" style="fill:white;"/>
                </g>
                <g transform="matrix(1,0,0,1,-3011.16,-1673.38)">
                    <circle cx="2142.39" cy="2679.22" r="1.53" style="fill:white;"/>
                </g>
                <g transform="matrix(1,0,0,1,-2981.07,-1697.04)">
                    <circle cx="2142.39" cy="2679.22" r="1.53" style="fill:white;"/>
                </g>
                <g transform="matrix(1,0,0,1,-3011.16,-1666.95)">
                    <circle cx="2142.39" cy="2679.22" r="1.53" style="fill:white;"/>
                </g>
                <g transform="matrix(1,0,0,1,-2975.15,-1709.91)">
                    <circle cx="2142.39" cy="2679.22" r="1.53" style="fill:white;"/>
                </g>
                <g transform="matrix(1,0,0,1,-3005.25,-1679.82)">
                    <circle cx="2142.39" cy="2679.22" r="1.53" style="fill:white;"/>
                </g>
                <g transform="matrix(1,0,0,1,-2975.15,-1703.48)">
                    <circle cx="2142.39" cy="2679.22" r="1.53" style="fill:white;"/>
                </g>
                <g transform="matrix(1,0,0,1,-3005.25,-1673.38)">
                    <circle cx="2142.39" cy="2679.22" r="1.53" style="fill:white;"/>
                </g>
                <g transform="matrix(1,0,0,1,-2975.15,-1697.04)">
                    <circle cx="2142.39" cy="2679.22" r="1.53" style="fill:white;"/>
                </g>
                <g transform="matrix(1,0,0,1,-3005.25,-1666.95)">
                    <circle cx="2142.39" cy="2679.22" r="1.53" style="fill:white;"/>
                </g>
                <g transform="matrix(1,0,0,1,-2969.24,-1709.91)">
                    <circle cx="2142.39" cy="2679.22" r="1.53" style="fill:white;"/>
                </g>
                <g transform="matrix(1,0,0,1,-2999.33,-1679.82)">
                    <circle cx="2142.39" cy="2679.22" r="1.53" style="fill:white;"/>
                </g>
                <g transform="matrix(1,0,0,1,-2969.24,-1703.48)">
                    <circle cx="2142.39" cy="2679.22" r="1.53" style="fill:white;"/>
                </g>
                <g transform="matrix(1,0,0,1,-2999.33,-1673.38)">
                    <circle cx="2142.39" cy="2679.22" r="1.53" style="fill:white;"/>
                </g>
                <g transform="matrix(1,0,0,1,-2969.24,-1697.04)">
                    <circle cx="2142.39" cy="2679.22" r="1.53" style="fill:white;"/>
                </g>
                <g transform="matrix(1,0,0,1,-2999.33,-1666.95)">
                    <circle cx="2142.39" cy="2679.22" r="1.53" style="fill:white;"/>
                </g>
                <g transform="matrix(1,0,0,1,-2981.07,-1709.91)">
                    <circle cx="2142.39" cy="2679.22" r="1.53" style="fill:rgb(107,166,234);"/>
                </g>
                <g transform="matrix(1,0,0,1,-3011.16,-1679.82)">
                    <circle cx="2142.39" cy="2679.22" r="1.53" style="fill:rgb(107,166,234);"/>
                </g>
                <g transform="matrix(1,0,0,1,-2981.07,-1703.48)">
                    <circle cx="2142.39" cy="2679.22" r="1.53" style="fill:rgb(107,166,234);"/>
                </g>
                <g transform="matrix(1,0,0,1,-3011.16,-1673.38)">
                    <circle cx="2142.39" cy="2679.22" r="1.53" style="fill:rgb(107,166,234);"/>
                </g>
                <g transform="matrix(1,0,0,1,-2981.07,-1697.04)">
                    <circle cx="2142.39" cy="2679.22" r="1.53" style="fill:rgb(107,166,234);"/>
                </g>
                <g transform="matrix(1,0,0,1,-3011.16,-1666.95)">
                    <circle cx="2142.39" cy="2679.22" r="1.53" style="fill:rgb(107,166,234);"/>
                </g>
                <g transform="matrix(1,0,0,1,-2975.15,-1709.91)">
                    <circle cx="2142.39" cy="2679.22" r="1.53" style="fill:rgb(107,166,234);"/>
                </g>
                <g transform="matrix(1,0,0,1,-3005.25,-1679.82)">
                    <circle cx="2142.39" cy="2679.22" r="1.53" style="fill:rgb(107,166,234);"/>
                </g>
                <g transform="matrix(1,0,0,1,-2975.15,-1703.48)">
                    <circle cx="2142.39" cy="2679.22" r="1.53" style="fill:rgb(107,166,234);"/>
                </g>
                <g transform="matrix(1,0,0,1,-3005.25,-1673.38)">
                    <circle cx="2142.39" cy="2679.22" r="1.53" style="fill:rgb(107,166,234);"/>
                </g>
                <g transform="matrix(1,0,0,1,-2975.15,-1697.04)">
                    <circle cx="2142.39" cy="2679.22" r="1.53" style="fill:rgb(107,166,234);"/>
                </g>
                <g transform="matrix(1,0,0,1,-3005.25,-1666.95)">
                    <circle cx="2142.39" cy="2679.22" r="1.53" style="fill:rgb(107,166,234);"/>
                </g>
                <g transform="matrix(1,0,0,1,-2969.24,-1709.91)">
                    <circle cx="2142.39" cy="2679.22" r="1.53" style="fill:rgb(107,166,234);"/>
                </g>
                <g transform="matrix(1,0,0,1,-2999.33,-1679.82)">
                    <circle cx="2142.39" cy="2679.22" r="1.53" style="fill:rgb(107,166,234);"/>
                </g>
                <g transform="matrix(1,0,0,1,-2969.24,-1703.48)">
                    <circle cx="2142.39" cy="2679.22" r="1.53" style="fill:rgb(107,166,234);"/>
                </g>
                <g transform="matrix(1,0,0,1,-2999.33,-1673.38)">
                    <circle cx="2142.39" cy="2679.22" r="1.53" style="fill:rgb(107,166,234);"/>
                </g>
                <g transform="matrix(1,0,0,1,-2969.24,-1697.04)">
                    <circle cx="2142.39" cy="2679.22" r="1.53" style="fill:rgb(107,166,234);"/>
                </g>
                <g transform="matrix(1,0,0,1,-2999.33,-1666.95)">
                    <circle cx="2142.39" cy="2679.22" r="1.53" style="fill:rgb(107,166,234);"/>
                </g>
            </g>
        </g>
    </g>
</svg>
