<?xml version="1.0" encoding="UTF-8" standalone="no"?>
<!DOCTYPE svg PUBLIC "-//W3C//DTD SVG 1.1//EN" "http://www.w3.org/Graphics/SVG/1.1/DTD/svg11.dtd">
<svg width="100%" height="100%" viewBox="0 0 1685 692" version="1.1" xmlns="http://www.w3.org/2000/svg" xmlns:xlink="http://www.w3.org/1999/xlink" xml:space="preserve" xmlns:serif="http://www.serif.com/" style="fill-rule:evenodd;clip-rule:evenodd;stroke-linejoin:round;stroke-miterlimit:2;">
    <g transform="matrix(1,0,0,1,-5984.29,-5263.26)">
        <g transform="matrix(2.66858,0,0,2.51992,10434.3,5935.35)">
            <g transform="matrix(9.48022,0,0,10.0395,-6411.93,-8268.03)">
                <text x="531.983px" y="808.426px" style="font-family:'Haettenschweiler', sans-serif;font-size:12px;fill:rgb(107,166,234);">Skin Care</text>
                <text x="531.983px" y="820.841px" style="font-family:'Haettenschweiler', sans-serif;font-size:12px;fill:rgb(107,166,234);">Shop</text>
            </g>
        </g>
        <g transform="matrix(2.66858,0,0,2.51992,10434.3,5935.35)">
            <g transform="matrix(2.72931,0,0,2.89032,-7406.72,-7978.65)">
                <path d="M2166.41,2731.81L2117.34,2731.81C2109.3,2731.81 2102.79,2725.3 2102.79,2717.26C2102.79,2716.21 2102.79,2715.14 2102.79,2714.08C2102.79,2706.05 2109.3,2699.53 2117.34,2699.53L2134.13,2699.53L2134.13,2682.74C2134.13,2674.71 2140.64,2668.19 2148.68,2668.19C2149.74,2668.19 2150.8,2668.19 2151.86,2668.19C2159.9,2668.19 2166.41,2674.71 2166.41,2682.74L2166.41,2731.81Z" style="fill:rgb(24,239,52);"/>
            </g>
        </g>
        <g transform="matrix(2.66858,0,0,2.51992,10434.3,5935.35)">
            <g transform="matrix(2.72931,0,0,2.89032,-7406.72,-7978.65)">
                <path d="M2166.41,2735.3L2166.41,2747.02C2166.41,2755.93 2159.18,2763.16 2150.27,2763.16L2150.27,2763.16C2141.36,2763.16 2134.13,2755.93 2134.13,2747.02L2134.13,2735.3L2166.41,2735.3ZM2181.61,2699.53C2190.53,2699.53 2197.75,2706.76 2197.75,2715.67L2197.75,2715.67C2197.75,2724.59 2190.53,2731.81 2181.61,2731.81L2169.67,2731.81L2169.67,2699.53L2181.61,2699.53Z" style="fill:rgb(107,166,234);"/>
            </g>
        </g>
        <g transform="matrix(2.66858,0,0,2.51992,10434.3,5935.35)">
            <g transform="matrix(2.72931,0,0,2.89032,-7403.72,-7978.65)">
                <circle cx="2142.39" cy="2679.22" r="1.53" style="fill:white;"/>
            </g>
        </g>
        <g transform="matrix(2.66858,0,0,2.51992,10434.3,5935.35)">
            <g transform="matrix(2.72931,0,0,2.89032,-7485.86,-7891.66)">
                <circle cx="2142.39" cy="2679.22" r="1.53" style="fill:white;"/>
            </g>
        </g>
        <g transform="matrix(2.66858,0,0,2.51992,10434.3,5935.35)">
            <g transform="matrix(2.72931,0,0,2.89032,-7403.72,-7960.05)">
                <circle cx="2142.39" cy="2679.22" r="1.53" style="fill:white;"/>
            </g>
        </g>
        <g transform="matrix(2.66858,0,0,2.51992,10434.3,5935.35)">
            <g transform="matrix(2.72931,0,0,2.89032,-7485.86,-7873.06)">
                <circle cx="2142.39" cy="2679.22" r="1.53" style="fill:white;"/>
            </g>
        </g>
        <g transform="matrix(2.66858,0,0,2.51992,10434.3,5935.35)">
            <g transform="matrix(2.72931,0,0,2.89032,-7403.72,-7941.45)">
                <circle cx="2142.39" cy="2679.22" r="1.53" style="fill:white;"/>
            </g>
        </g>
        <g transform="matrix(2.66858,0,0,2.51992,10434.3,5935.35)">
            <g transform="matrix(2.72931,0,0,2.89032,-7485.86,-7854.46)">
                <circle cx="2142.39" cy="2679.22" r="1.53" style="fill:white;"/>
            </g>
        </g>
        <g transform="matrix(2.66858,0,0,2.51992,10434.3,5935.35)">
            <g transform="matrix(2.72931,0,0,2.89032,-7387.59,-7978.65)">
                <circle cx="2142.39" cy="2679.22" r="1.53" style="fill:white;"/>
            </g>
        </g>
        <g transform="matrix(2.66858,0,0,2.51992,10434.3,5935.35)">
            <g transform="matrix(2.72931,0,0,2.89032,-7469.72,-7891.66)">
                <circle cx="2142.39" cy="2679.22" r="1.53" style="fill:white;"/>
            </g>
        </g>
        <g transform="matrix(2.66858,0,0,2.51992,10434.3,5935.35)">
            <g transform="matrix(2.72931,0,0,2.89032,-7387.59,-7960.05)">
                <circle cx="2142.39" cy="2679.22" r="1.53" style="fill:white;"/>
            </g>
        </g>
        <g transform="matrix(2.66858,0,0,2.51992,10434.3,5935.35)">
            <g transform="matrix(2.72931,0,0,2.89032,-7469.72,-7873.06)">
                <circle cx="2142.39" cy="2679.22" r="1.53" style="fill:white;"/>
            </g>
        </g>
        <g transform="matrix(2.66858,0,0,2.51992,10434.3,5935.35)">
            <g transform="matrix(2.72931,0,0,2.89032,-7387.59,-7941.45)">
                <circle cx="2142.39" cy="2679.22" r="1.53" style="fill:white;"/>
            </g>
        </g>
        <g transform="matrix(2.66858,0,0,2.51992,10434.3,5935.35)">
            <g transform="matrix(2.72931,0,0,2.89032,-7469.72,-7854.46)">
                <circle cx="2142.39" cy="2679.22" r="1.53" style="fill:white;"/>
            </g>
        </g>
        <g transform="matrix(2.66858,0,0,2.51992,10434.3,5935.35)">
            <g transform="matrix(2.72931,0,0,2.89032,-7371.45,-7978.65)">
                <circle cx="2142.39" cy="2679.22" r="1.53" style="fill:white;"/>
            </g>
        </g>
        <g transform="matrix(2.66858,0,0,2.51992,10434.3,5935.35)">
            <g transform="matrix(2.72931,0,0,2.89032,-7453.58,-7891.66)">
                <circle cx="2142.39" cy="2679.22" r="1.53" style="fill:white;"/>
            </g>
        </g>
        <g transform="matrix(2.66858,0,0,2.51992,10434.3,5935.35)">
            <g transform="matrix(2.72931,0,0,2.89032,-7371.45,-7960.05)">
                <circle cx="2142.39" cy="2679.22" r="1.53" style="fill:white;"/>
            </g>
        </g>
        <g transform="matrix(2.66858,0,0,2.51992,10434.3,5935.35)">
            <g transform="matrix(2.72931,0,0,2.89032,-7453.58,-7873.06)">
                <circle cx="2142.39" cy="2679.22" r="1.53" style="fill:white;"/>
            </g>
        </g>
        <g transform="matrix(2.66858,0,0,2.51992,10434.3,5935.35)">
            <g transform="matrix(2.72931,0,0,2.89032,-7371.45,-7941.45)">
                <circle cx="2142.39" cy="2679.22" r="1.53" style="fill:white;"/>
            </g>
        </g>
        <g transform="matrix(2.66858,0,0,2.51992,10434.3,5935.35)">
            <g transform="matrix(2.72931,0,0,2.89032,-7453.58,-7854.46)">
                <circle cx="2142.39" cy="2679.22" r="1.53" style="fill:white;"/>
            </g>
        </g>
    </g>
</svg>
